<svg class="main-svg" xmlns="http://www.w3.org/2000/svg" xmlns:xlink="http://www.w3.org/1999/xlink" width="800" height="400" style="" viewBox="0 0 800 400"><rect x="0" y="0" width="800" height="400" style="fill: rgb(255, 255, 255); fill-opacity: 1;"/><defs id="defs-dbc73f"><g class="clips"><clipPath id="clipdbc73fxyplot" class="plotclip"><rect width="743" height="360"/></clipPath><clipPath class="axesclip" id="clipdbc73fx"><rect x="0" y="0" width="743" height="400"/></clipPath><clipPath class="axesclip" id="clipdbc73fy"><rect x="0" y="40" width="800" height="360"/></clipPath><clipPath class="axesclip" id="clipdbc73fxy"><rect x="0" y="40" width="743" height="360"/></clipPath></g><g class="gradients"><linearGradient x1="0" x2="0" y1="1" y2="0" id="gdbc73f-cb829d31"><stop offset="0%" stop-color="rgb(255, 255, 255)" stop-opacity="1"/><stop offset="25%" stop-color="rgb(230, 211, 217)" stop-opacity="1"/><stop offset="50%" stop-color="rgb(206, 168, 180)" stop-opacity="1"/><stop offset="75%" stop-color="rgb(182, 124, 142)" stop-opacity="1"/><stop offset="100%" stop-color="rgb(158, 81, 105)" stop-opacity="1"/></linearGradient></g><g class="patterns"/></defs><g class="bglayer"/><g class="layer-below"><g class="imagelayer"/><g class="shapelayer"/></g><g class="cartesianlayer"><g class="subplot xy"><g class="layer-subplot"><g class="shapelayer"/><g class="imagelayer"/></g><g class="minor-gridlayer"><g class="x"/><g class="y"/></g><g class="gridlayer"><g class="x"/><g class="y"/></g><g class="zerolinelayer"/><path class="xlines-below"/><path class="ylines-below"/><g class="overlines-below"/><g class="xaxislayer-below"/><g class="yaxislayer-below"/><g class="overaxes-below"/><g class="plot" transform="translate(0,40)" clip-path="url(#clipdbc73fxyplot)"><g class="scatterlayer mlayer"><g class="trace scatter tracedff64c" style="stroke-miterlimit: 2; opacity: 1;"><g class="fills"/><g class="errorbars"/><g class="lines"><path class="js-line" d="M73.99,127.76L61.35,125.56" style="vector-effect: none; fill: none; stroke: rgb(0, 0, 0); stroke-opacity: 1; stroke-width: 1px; opacity: 1;"/><path class="js-line" d="M83.78,215.26L72.76,214.04" style="vector-effect: none; fill: none; stroke: rgb(0, 0, 0); stroke-opacity: 1; stroke-width: 1px; opacity: 1;"/><path class="js-line" d="M636.22,162.21L646.48,161.19" style="vector-effect: none; fill: none; stroke: rgb(0, 0, 0); stroke-opacity: 1; stroke-width: 1px; opacity: 1;"/><path class="js-line" d="M72.76,214.04L77.03,209.71" style="vector-effect: none; fill: none; stroke: rgb(0, 0, 0); stroke-opacity: 1; stroke-width: 1px; opacity: 1;"/><path class="js-line" d="M314.42,224.52L305.87,224.73" style="vector-effect: none; fill: none; stroke: rgb(0, 0, 0); stroke-opacity: 1; stroke-width: 1px; opacity: 1;"/><path class="js-line" d="M626.23,233.37L635.41,235.08" style="vector-effect: none; fill: none; stroke: rgb(0, 0, 0); stroke-opacity: 1; stroke-width: 1px; opacity: 1;"/><path class="js-line" d="M450.08,311.64L455.2,308.5" style="vector-effect: none; fill: none; stroke: rgb(0, 0, 0); stroke-opacity: 1; stroke-width: 1px; opacity: 1;"/><path class="js-line" d="M321.42,183.36L322.81,187.37" style="vector-effect: none; fill: none; stroke: rgb(0, 0, 0); stroke-opacity: 1; stroke-width: 1px; opacity: 1;"/><path class="js-line" d="M377.25,324.38L384.75,322.95" style="vector-effect: none; fill: none; stroke: rgb(0, 0, 0); stroke-opacity: 1; stroke-width: 1px; opacity: 1;"/><path class="js-line" d="M426.95,212.29L423.76,207.7" style="vector-effect: none; fill: none; stroke: rgb(0, 0, 0); stroke-opacity: 1; stroke-width: 1px; opacity: 1;"/><path class="js-line" d="M423.76,207.7L421.14,202.44" style="vector-effect: none; fill: none; stroke: rgb(0, 0, 0); stroke-opacity: 1; stroke-width: 1px; opacity: 1;"/><path class="js-line" d="M171.65,116.81L176.55,120.16" style="vector-effect: none; fill: none; stroke: rgb(0, 0, 0); stroke-opacity: 1; stroke-width: 1px; opacity: 1;"/><path class="js-line" d="M421.14,202.44L423.01,197.9" style="vector-effect: none; fill: none; stroke: rgb(0, 0, 0); stroke-opacity: 1; stroke-width: 1px; opacity: 1;"/><path class="js-line" d="M62.89,196.54L48.79,197.53" style="vector-effect: none; fill: none; stroke: rgb(0, 0, 0); stroke-opacity: 1; stroke-width: 1px; opacity: 1;"/><path class="js-line" d="M527.57,297.18L531.45,301.85" style="vector-effect: none; fill: none; stroke: rgb(0, 0, 0); stroke-opacity: 1; stroke-width: 1px; opacity: 1;"/><path class="js-line" d="M468.38,68.09L474.47,62.71" style="vector-effect: none; fill: none; stroke: rgb(0, 0, 0); stroke-opacity: 1; stroke-width: 1px; opacity: 1;"/><path class="js-line" d="M474.47,62.71L479.86,58.1" style="vector-effect: none; fill: none; stroke: rgb(0, 0, 0); stroke-opacity: 1; stroke-width: 1px; opacity: 1;"/><path class="js-line" d="M67.14,158.18L78.35,159.03" style="vector-effect: none; fill: none; stroke: rgb(0, 0, 0); stroke-opacity: 1; stroke-width: 1px; opacity: 1;"/><path class="js-line" d="M547.98,311.65L544.76,306.11" style="vector-effect: none; fill: none; stroke: rgb(0, 0, 0); stroke-opacity: 1; stroke-width: 1px; opacity: 1;"/><path class="js-line" d="M547.98,311.65L554.02,309.63" style="vector-effect: none; fill: none; stroke: rgb(0, 0, 0); stroke-opacity: 1; stroke-width: 1px; opacity: 1;"/><path class="js-line" d="M544.76,306.11L554.02,309.63" style="vector-effect: none; fill: none; stroke: rgb(0, 0, 0); stroke-opacity: 1; stroke-width: 1px; opacity: 1;"/><path class="js-line" d="M601.16,264.2L594.05,266.25" style="vector-effect: none; fill: none; stroke: rgb(0, 0, 0); stroke-opacity: 1; stroke-width: 1px; opacity: 1;"/><path class="js-line" d="M651.65,205.83L646.78,209.08" style="vector-effect: none; fill: none; stroke: rgb(0, 0, 0); stroke-opacity: 1; stroke-width: 1px; opacity: 1;"/><path class="js-line" d="M237.02,314.12L229.18,315.42" style="vector-effect: none; fill: none; stroke: rgb(0, 0, 0); stroke-opacity: 1; stroke-width: 1px; opacity: 1;"/><path class="js-line" d="M301.56,259.16L307.58,256.25" style="vector-effect: none; fill: none; stroke: rgb(0, 0, 0); stroke-opacity: 1; stroke-width: 1px; opacity: 1;"/><path class="js-line" d="M110.06,140.89L100.12,139.64" style="vector-effect: none; fill: none; stroke: rgb(0, 0, 0); stroke-opacity: 1; stroke-width: 1px; opacity: 1;"/><path class="js-line" d="M402.77,40.6L410.07,39.5" style="vector-effect: none; fill: none; stroke: rgb(0, 0, 0); stroke-opacity: 1; stroke-width: 1px; opacity: 1;"/><path class="js-line" d="M402.77,40.6L406.19,44.88" style="vector-effect: none; fill: none; stroke: rgb(0, 0, 0); stroke-opacity: 1; stroke-width: 1px; opacity: 1;"/><path class="js-line" d="M410.07,39.5L406.19,44.88" style="vector-effect: none; fill: none; stroke: rgb(0, 0, 0); stroke-opacity: 1; stroke-width: 1px; opacity: 1;"/><path class="js-line" d="M528.88,91.38L520.96,94.84" style="vector-effect: none; fill: none; stroke: rgb(0, 0, 0); stroke-opacity: 1; stroke-width: 1px; opacity: 1;"/><path class="js-line" d="M588.31,93L597.84,89.26" style="vector-effect: none; fill: none; stroke: rgb(0, 0, 0); stroke-opacity: 1; stroke-width: 1px; opacity: 1;"/><path class="js-line" d="M233.7,175.76L226.05,177.59" style="vector-effect: none; fill: none; stroke: rgb(0, 0, 0); stroke-opacity: 1; stroke-width: 1px; opacity: 1;"/><path class="js-line" d="M451.6,161.4L443.67,159.48" style="vector-effect: none; fill: none; stroke: rgb(0, 0, 0); stroke-opacity: 1; stroke-width: 1px; opacity: 1;"/><path class="js-line" d="M451.6,161.4L450.91,156.42" style="vector-effect: none; fill: none; stroke: rgb(0, 0, 0); stroke-opacity: 1; stroke-width: 1px; opacity: 1;"/><path class="js-line" d="M443.67,159.48L450.91,156.42" style="vector-effect: none; fill: none; stroke: rgb(0, 0, 0); stroke-opacity: 1; stroke-width: 1px; opacity: 1;"/><path class="js-line" d="M443.67,159.48L440.37,155.6" style="vector-effect: none; fill: none; stroke: rgb(0, 0, 0); stroke-opacity: 1; stroke-width: 1px; opacity: 1;"/><path class="js-line" d="M450.91,156.42L440.37,155.6" style="vector-effect: none; fill: none; stroke: rgb(0, 0, 0); stroke-opacity: 1; stroke-width: 1px; opacity: 1;"/><path class="js-line" d="M450.91,156.42L460.1,152.81" style="vector-effect: none; fill: none; stroke: rgb(0, 0, 0); stroke-opacity: 1; stroke-width: 1px; opacity: 1;"/><path class="js-line" d="M266.25,96.3L273.46,98.29" style="vector-effect: none; fill: none; stroke: rgb(0, 0, 0); stroke-opacity: 1; stroke-width: 1px; opacity: 1;"/><path class="js-line" d="M152.09,262.34L143.6,263.02" style="vector-effect: none; fill: none; stroke: rgb(0, 0, 0); stroke-opacity: 1; stroke-width: 1px; opacity: 1;"/><path class="js-line" d="M331.11,67.19L330.15,62.99" style="vector-effect: none; fill: none; stroke: rgb(0, 0, 0); stroke-opacity: 1; stroke-width: 1px; opacity: 1;"/></g><g class="points"/><g class="text"/></g><g class="trace scatter trace829d31" style="stroke-miterlimit: 2; opacity: 1;"><g class="fills"/><g class="errorbars"/><g class="lines"/><g class="points"><path class="point" transform="translate(335.6,23)" d="M4,0A4,4 0 1,1 0,-4A4,4 0 0,1 4,0Z" style="opacity: 1; stroke-width: 1px; fill: rgb(255, 255, 255); fill-opacity: 1; stroke: rgb(68, 68, 68); stroke-opacity: 1;"/><path class="point" transform="translate(658.12,130.82)" d="M4,0A4,4 0 1,1 0,-4A4,4 0 0,1 4,0Z" style="opacity: 1; stroke-width: 1px; fill: rgb(255, 255, 255); fill-opacity: 1; stroke: rgb(68, 68, 68); stroke-opacity: 1;"/><path class="point" transform="translate(155.7,300.76)" d="M4,0A4,4 0 1,1 0,-4A4,4 0 0,1 4,0Z" style="opacity: 1; stroke-width: 1px; fill: rgb(255, 255, 255); fill-opacity: 1; stroke: rgb(68, 68, 68); stroke-opacity: 1;"/><path class="point" transform="translate(71.32,101.79)" d="M4,0A4,4 0 1,1 0,-4A4,4 0 0,1 4,0Z" style="opacity: 1; stroke-width: 1px; fill: rgb(255, 255, 255); fill-opacity: 1; stroke: rgb(68, 68, 68); stroke-opacity: 1;"/><path class="point" transform="translate(532.25,57.14)" d="M4,0A4,4 0 1,1 0,-4A4,4 0 0,1 4,0Z" style="opacity: 1; stroke-width: 1px; fill: rgb(255, 255, 255); fill-opacity: 1; stroke: rgb(68, 68, 68); stroke-opacity: 1;"/><path class="point" transform="translate(126.44,57.82)" d="M4,0A4,4 0 1,1 0,-4A4,4 0 0,1 4,0Z" style="opacity: 1; stroke-width: 1px; fill: rgb(255, 255, 255); fill-opacity: 1; stroke: rgb(68, 68, 68); stroke-opacity: 1;"/><path class="point" transform="translate(620.74,280.23)" d="M4,0A4,4 0 1,1 0,-4A4,4 0 0,1 4,0Z" style="opacity: 1; stroke-width: 1px; fill: rgb(255, 255, 255); fill-opacity: 1; stroke: rgb(68, 68, 68); stroke-opacity: 1;"/><path class="point" transform="translate(122.37,282.21)" d="M4,0A4,4 0 1,1 0,-4A4,4 0 0,1 4,0Z" style="opacity: 1; stroke-width: 1px; fill: rgb(255, 255, 255); fill-opacity: 1; stroke: rgb(68, 68, 68); stroke-opacity: 1;"/><path class="point" transform="translate(112.37,108.41)" d="M4,0A4,4 0 1,1 0,-4A4,4 0 0,1 4,0Z" style="opacity: 1; stroke-width: 1px; fill: rgb(255, 255, 255); fill-opacity: 1; stroke: rgb(68, 68, 68); stroke-opacity: 1;"/><path class="point" transform="translate(341.02,323.01)" d="M4,0A4,4 0 1,1 0,-4A4,4 0 0,1 4,0Z" style="opacity: 1; stroke-width: 1px; fill: rgb(255, 255, 255); fill-opacity: 1; stroke: rgb(68, 68, 68); stroke-opacity: 1;"/><path class="point" transform="translate(488.11,321.82)" d="M4,0A4,4 0 1,1 0,-4A4,4 0 0,1 4,0Z" style="opacity: 1; stroke-width: 1px; fill: rgb(255, 255, 255); fill-opacity: 1; stroke: rgb(68, 68, 68); stroke-opacity: 1;"/><path class="point" transform="translate(90.7,238.61)" d="M4,0A4,4 0 1,1 0,-4A4,4 0 0,1 4,0Z" style="opacity: 1; stroke-width: 1px; fill: rgb(255, 255, 255); fill-opacity: 1; stroke: rgb(68, 68, 68); stroke-opacity: 1;"/><path class="point" transform="translate(350.7,31.45)" d="M4,0A4,4 0 1,1 0,-4A4,4 0 0,1 4,0Z" style="opacity: 1; stroke-width: 1px; fill: rgb(255, 255, 255); fill-opacity: 1; stroke: rgb(68, 68, 68); stroke-opacity: 1;"/><path class="point" transform="translate(58.38,181.99)" d="M4,0A4,4 0 1,1 0,-4A4,4 0 0,1 4,0Z" style="opacity: 1; stroke-width: 1px; fill: rgb(255, 255, 255); fill-opacity: 1; stroke: rgb(68, 68, 68); stroke-opacity: 1;"/><path class="point" transform="translate(432.08,334.47)" d="M4,0A4,4 0 1,1 0,-4A4,4 0 0,1 4,0Z" style="opacity: 1; stroke-width: 1px; fill: rgb(255, 255, 255); fill-opacity: 1; stroke: rgb(68, 68, 68); stroke-opacity: 1;"/><path class="point" transform="translate(443.47,326.86)" d="M4,0A4,4 0 1,1 0,-4A4,4 0 0,1 4,0Z" style="opacity: 1; stroke-width: 1px; fill: rgb(255, 255, 255); fill-opacity: 1; stroke: rgb(68, 68, 68); stroke-opacity: 1;"/><path class="point" transform="translate(182.48,40.74)" d="M4,0A4,4 0 1,1 0,-4A4,4 0 0,1 4,0Z" style="opacity: 1; stroke-width: 1px; fill: rgb(255, 255, 255); fill-opacity: 1; stroke: rgb(68, 68, 68); stroke-opacity: 1;"/><path class="point" transform="translate(648.65,86.28)" d="M4,0A4,4 0 1,1 0,-4A4,4 0 0,1 4,0Z" style="opacity: 1; stroke-width: 1px; fill: rgb(255, 255, 255); fill-opacity: 1; stroke: rgb(68, 68, 68); stroke-opacity: 1;"/><path class="point" transform="translate(197.5,312.79)" d="M4,0A4,4 0 1,1 0,-4A4,4 0 0,1 4,0Z" style="opacity: 1; stroke-width: 1px; fill: rgb(255, 255, 255); fill-opacity: 1; stroke: rgb(68, 68, 68); stroke-opacity: 1;"/><path class="point" transform="translate(668.31,191.21)" d="M4,0A4,4 0 1,1 0,-4A4,4 0 0,1 4,0Z" style="opacity: 1; stroke-width: 1px; fill: rgb(255, 255, 255); fill-opacity: 1; stroke: rgb(68, 68, 68); stroke-opacity: 1;"/><path class="point" transform="translate(73.99,127.76)" d="M4,0A4,4 0 1,1 0,-4A4,4 0 0,1 4,0Z" style="opacity: 1; stroke-width: 1px; fill: rgb(230, 211, 217); fill-opacity: 1; stroke: rgb(68, 68, 68); stroke-opacity: 1;"/><path class="point" transform="translate(61.35,125.56)" d="M4,0A4,4 0 1,1 0,-4A4,4 0 0,1 4,0Z" style="opacity: 1; stroke-width: 1px; fill: rgb(230, 211, 217); fill-opacity: 1; stroke: rgb(68, 68, 68); stroke-opacity: 1;"/><path class="point" transform="translate(158.52,71.94)" d="M4,0A4,4 0 1,1 0,-4A4,4 0 0,1 4,0Z" style="opacity: 1; stroke-width: 1px; fill: rgb(255, 255, 255); fill-opacity: 1; stroke: rgb(68, 68, 68); stroke-opacity: 1;"/><path class="point" transform="translate(83.78,215.26)" d="M4,0A4,4 0 1,1 0,-4A4,4 0 0,1 4,0Z" style="opacity: 1; stroke-width: 1px; fill: rgb(230, 211, 217); fill-opacity: 1; stroke: rgb(68, 68, 68); stroke-opacity: 1;"/><path class="point" transform="translate(636.22,162.21)" d="M4,0A4,4 0 1,1 0,-4A4,4 0 0,1 4,0Z" style="opacity: 1; stroke-width: 1px; fill: rgb(230, 211, 217); fill-opacity: 1; stroke: rgb(68, 68, 68); stroke-opacity: 1;"/><path class="point" transform="translate(666.79,101.7)" d="M4,0A4,4 0 1,1 0,-4A4,4 0 0,1 4,0Z" style="opacity: 1; stroke-width: 1px; fill: rgb(255, 255, 255); fill-opacity: 1; stroke: rgb(68, 68, 68); stroke-opacity: 1;"/><path class="point" transform="translate(646.48,161.19)" d="M4,0A4,4 0 1,1 0,-4A4,4 0 0,1 4,0Z" style="opacity: 1; stroke-width: 1px; fill: rgb(230, 211, 217); fill-opacity: 1; stroke: rgb(68, 68, 68); stroke-opacity: 1;"/><path class="point" transform="translate(408.87,24.82)" d="M4,0A4,4 0 1,1 0,-4A4,4 0 0,1 4,0Z" style="opacity: 1; stroke-width: 1px; fill: rgb(255, 255, 255); fill-opacity: 1; stroke: rgb(68, 68, 68); stroke-opacity: 1;"/><path class="point" transform="translate(72.76,214.04)" d="M4,0A4,4 0 1,1 0,-4A4,4 0 0,1 4,0Z" style="opacity: 1; stroke-width: 1px; fill: rgb(206, 168, 180); fill-opacity: 1; stroke: rgb(68, 68, 68); stroke-opacity: 1;"/><path class="point" transform="translate(51.12,223.76)" d="M4,0A4,4 0 1,1 0,-4A4,4 0 0,1 4,0Z" style="opacity: 1; stroke-width: 1px; fill: rgb(255, 255, 255); fill-opacity: 1; stroke: rgb(68, 68, 68); stroke-opacity: 1;"/><path class="point" transform="translate(208.35,303.88)" d="M4,0A4,4 0 1,1 0,-4A4,4 0 0,1 4,0Z" style="opacity: 1; stroke-width: 1px; fill: rgb(255, 255, 255); fill-opacity: 1; stroke: rgb(68, 68, 68); stroke-opacity: 1;"/><path class="point" transform="translate(660.91,241.39)" d="M4,0A4,4 0 1,1 0,-4A4,4 0 0,1 4,0Z" style="opacity: 1; stroke-width: 1px; fill: rgb(255, 255, 255); fill-opacity: 1; stroke: rgb(68, 68, 68); stroke-opacity: 1;"/><path class="point" transform="translate(77.03,209.71)" d="M4,0A4,4 0 1,1 0,-4A4,4 0 0,1 4,0Z" style="opacity: 1; stroke-width: 1px; fill: rgb(230, 211, 217); fill-opacity: 1; stroke: rgb(68, 68, 68); stroke-opacity: 1;"/><path class="point" transform="translate(141.85,65.67)" d="M4,0A4,4 0 1,1 0,-4A4,4 0 0,1 4,0Z" style="opacity: 1; stroke-width: 1px; fill: rgb(255, 255, 255); fill-opacity: 1; stroke: rgb(68, 68, 68); stroke-opacity: 1;"/><path class="point" transform="translate(213.21,31.58)" d="M4,0A4,4 0 1,1 0,-4A4,4 0 0,1 4,0Z" style="opacity: 1; stroke-width: 1px; fill: rgb(255, 255, 255); fill-opacity: 1; stroke: rgb(68, 68, 68); stroke-opacity: 1;"/><path class="point" transform="translate(314.42,224.52)" d="M4,0A4,4 0 1,1 0,-4A4,4 0 0,1 4,0Z" style="opacity: 1; stroke-width: 1px; fill: rgb(230, 211, 217); fill-opacity: 1; stroke: rgb(68, 68, 68); stroke-opacity: 1;"/><path class="point" transform="translate(305.87,224.73)" d="M4,0A4,4 0 1,1 0,-4A4,4 0 0,1 4,0Z" style="opacity: 1; stroke-width: 1px; fill: rgb(230, 211, 217); fill-opacity: 1; stroke: rgb(68, 68, 68); stroke-opacity: 1;"/><path class="point" transform="translate(626.23,233.37)" d="M4,0A4,4 0 1,1 0,-4A4,4 0 0,1 4,0Z" style="opacity: 1; stroke-width: 1px; fill: rgb(230, 211, 217); fill-opacity: 1; stroke: rgb(68, 68, 68); stroke-opacity: 1;"/><path class="point" transform="translate(635.41,235.08)" d="M4,0A4,4 0 1,1 0,-4A4,4 0 0,1 4,0Z" style="opacity: 1; stroke-width: 1px; fill: rgb(230, 211, 217); fill-opacity: 1; stroke: rgb(68, 68, 68); stroke-opacity: 1;"/><path class="point" transform="translate(290.01,329.25)" d="M4,0A4,4 0 1,1 0,-4A4,4 0 0,1 4,0Z" style="opacity: 1; stroke-width: 1px; fill: rgb(255, 255, 255); fill-opacity: 1; stroke: rgb(68, 68, 68); stroke-opacity: 1;"/><path class="point" transform="translate(685.18,151.48)" d="M4,0A4,4 0 1,1 0,-4A4,4 0 0,1 4,0Z" style="opacity: 1; stroke-width: 1px; fill: rgb(255, 255, 255); fill-opacity: 1; stroke: rgb(68, 68, 68); stroke-opacity: 1;"/><path class="point" transform="translate(450.08,311.64)" d="M4,0A4,4 0 1,1 0,-4A4,4 0 0,1 4,0Z" style="opacity: 1; stroke-width: 1px; fill: rgb(230, 211, 217); fill-opacity: 1; stroke: rgb(68, 68, 68); stroke-opacity: 1;"/><path class="point" transform="translate(129.72,270.26)" d="M4,0A4,4 0 1,1 0,-4A4,4 0 0,1 4,0Z" style="opacity: 1; stroke-width: 1px; fill: rgb(255, 255, 255); fill-opacity: 1; stroke: rgb(68, 68, 68); stroke-opacity: 1;"/><path class="point" transform="translate(572.01,69.45)" d="M4,0A4,4 0 1,1 0,-4A4,4 0 0,1 4,0Z" style="opacity: 1; stroke-width: 1px; fill: rgb(255, 255, 255); fill-opacity: 1; stroke: rgb(68, 68, 68); stroke-opacity: 1;"/><path class="point" transform="translate(455.2,308.5)" d="M4,0A4,4 0 1,1 0,-4A4,4 0 0,1 4,0Z" style="opacity: 1; stroke-width: 1px; fill: rgb(230, 211, 217); fill-opacity: 1; stroke: rgb(68, 68, 68); stroke-opacity: 1;"/><path class="point" transform="translate(321.42,183.36)" d="M4,0A4,4 0 1,1 0,-4A4,4 0 0,1 4,0Z" style="opacity: 1; stroke-width: 1px; fill: rgb(230, 211, 217); fill-opacity: 1; stroke: rgb(68, 68, 68); stroke-opacity: 1;"/><path class="point" transform="translate(675.62,159.95)" d="M4,0A4,4 0 1,1 0,-4A4,4 0 0,1 4,0Z" style="opacity: 1; stroke-width: 1px; fill: rgb(255, 255, 255); fill-opacity: 1; stroke: rgb(68, 68, 68); stroke-opacity: 1;"/><path class="point" transform="translate(678.14,179.42)" d="M4,0A4,4 0 1,1 0,-4A4,4 0 0,1 4,0Z" style="opacity: 1; stroke-width: 1px; fill: rgb(255, 255, 255); fill-opacity: 1; stroke: rgb(68, 68, 68); stroke-opacity: 1;"/><path class="point" transform="translate(307.73,311.49)" d="M4,0A4,4 0 1,1 0,-4A4,4 0 0,1 4,0Z" style="opacity: 1; stroke-width: 1px; fill: rgb(255, 255, 255); fill-opacity: 1; stroke: rgb(68, 68, 68); stroke-opacity: 1;"/><path class="point" transform="translate(116.56,292.27)" d="M4,0A4,4 0 1,1 0,-4A4,4 0 0,1 4,0Z" style="opacity: 1; stroke-width: 1px; fill: rgb(255, 255, 255); fill-opacity: 1; stroke: rgb(68, 68, 68); stroke-opacity: 1;"/><path class="point" transform="translate(48.46,139.81)" d="M4,0A4,4 0 1,1 0,-4A4,4 0 0,1 4,0Z" style="opacity: 1; stroke-width: 1px; fill: rgb(255, 255, 255); fill-opacity: 1; stroke: rgb(68, 68, 68); stroke-opacity: 1;"/><path class="point" transform="translate(100.05,231.73)" d="M4,0A4,4 0 1,1 0,-4A4,4 0 0,1 4,0Z" style="opacity: 1; stroke-width: 1px; fill: rgb(255, 255, 255); fill-opacity: 1; stroke: rgb(68, 68, 68); stroke-opacity: 1;"/><path class="point" transform="translate(322.81,187.37)" d="M4,0A4,4 0 1,1 0,-4A4,4 0 0,1 4,0Z" style="opacity: 1; stroke-width: 1px; fill: rgb(230, 211, 217); fill-opacity: 1; stroke: rgb(68, 68, 68); stroke-opacity: 1;"/><path class="point" transform="translate(283.63,38.04)" d="M4,0A4,4 0 1,1 0,-4A4,4 0 0,1 4,0Z" style="opacity: 1; stroke-width: 1px; fill: rgb(255, 255, 255); fill-opacity: 1; stroke: rgb(68, 68, 68); stroke-opacity: 1;"/><path class="point" transform="translate(377.25,324.38)" d="M4,0A4,4 0 1,1 0,-4A4,4 0 0,1 4,0Z" style="opacity: 1; stroke-width: 1px; fill: rgb(230, 211, 217); fill-opacity: 1; stroke: rgb(68, 68, 68); stroke-opacity: 1;"/><path class="point" transform="translate(426.95,212.29)" d="M4,0A4,4 0 1,1 0,-4A4,4 0 0,1 4,0Z" style="opacity: 1; stroke-width: 1px; fill: rgb(230, 211, 217); fill-opacity: 1; stroke: rgb(68, 68, 68); stroke-opacity: 1;"/><path class="point" transform="translate(423.76,207.7)" d="M4,0A4,4 0 1,1 0,-4A4,4 0 0,1 4,0Z" style="opacity: 1; stroke-width: 1px; fill: rgb(206, 168, 180); fill-opacity: 1; stroke: rgb(68, 68, 68); stroke-opacity: 1;"/><path class="point" transform="translate(171.65,116.81)" d="M4,0A4,4 0 1,1 0,-4A4,4 0 0,1 4,0Z" style="opacity: 1; stroke-width: 1px; fill: rgb(230, 211, 217); fill-opacity: 1; stroke: rgb(68, 68, 68); stroke-opacity: 1;"/><path class="point" transform="translate(384.75,322.95)" d="M4,0A4,4 0 1,1 0,-4A4,4 0 0,1 4,0Z" style="opacity: 1; stroke-width: 1px; fill: rgb(230, 211, 217); fill-opacity: 1; stroke: rgb(68, 68, 68); stroke-opacity: 1;"/><path class="point" transform="translate(421.14,202.44)" d="M4,0A4,4 0 1,1 0,-4A4,4 0 0,1 4,0Z" style="opacity: 1; stroke-width: 1px; fill: rgb(206, 168, 180); fill-opacity: 1; stroke: rgb(68, 68, 68); stroke-opacity: 1;"/><path class="point" transform="translate(528.06,39.45)" d="M4,0A4,4 0 1,1 0,-4A4,4 0 0,1 4,0Z" style="opacity: 1; stroke-width: 1px; fill: rgb(255, 255, 255); fill-opacity: 1; stroke: rgb(68, 68, 68); stroke-opacity: 1;"/><path class="point" transform="translate(176.55,120.16)" d="M4,0A4,4 0 1,1 0,-4A4,4 0 0,1 4,0Z" style="opacity: 1; stroke-width: 1px; fill: rgb(230, 211, 217); fill-opacity: 1; stroke: rgb(68, 68, 68); stroke-opacity: 1;"/><path class="point" transform="translate(62.89,196.54)" d="M4,0A4,4 0 1,1 0,-4A4,4 0 0,1 4,0Z" style="opacity: 1; stroke-width: 1px; fill: rgb(230, 211, 217); fill-opacity: 1; stroke: rgb(68, 68, 68); stroke-opacity: 1;"/><path class="point" transform="translate(579.18,56.55)" d="M4,0A4,4 0 1,1 0,-4A4,4 0 0,1 4,0Z" style="opacity: 1; stroke-width: 1px; fill: rgb(255, 255, 255); fill-opacity: 1; stroke: rgb(68, 68, 68); stroke-opacity: 1;"/><path class="point" transform="translate(48.79,197.53)" d="M4,0A4,4 0 1,1 0,-4A4,4 0 0,1 4,0Z" style="opacity: 1; stroke-width: 1px; fill: rgb(230, 211, 217); fill-opacity: 1; stroke: rgb(68, 68, 68); stroke-opacity: 1;"/><path class="point" transform="translate(527.57,297.18)" d="M4,0A4,4 0 1,1 0,-4A4,4 0 0,1 4,0Z" style="opacity: 1; stroke-width: 1px; fill: rgb(230, 211, 217); fill-opacity: 1; stroke: rgb(68, 68, 68); stroke-opacity: 1;"/><path class="point" transform="translate(423.01,197.9)" d="M4,0A4,4 0 1,1 0,-4A4,4 0 0,1 4,0Z" style="opacity: 1; stroke-width: 1px; fill: rgb(230, 211, 217); fill-opacity: 1; stroke: rgb(68, 68, 68); stroke-opacity: 1;"/><path class="point" transform="translate(531.45,301.85)" d="M4,0A4,4 0 1,1 0,-4A4,4 0 0,1 4,0Z" style="opacity: 1; stroke-width: 1px; fill: rgb(230, 211, 217); fill-opacity: 1; stroke: rgb(68, 68, 68); stroke-opacity: 1;"/><path class="point" transform="translate(324.47,38)" d="M4,0A4,4 0 1,1 0,-4A4,4 0 0,1 4,0Z" style="opacity: 1; stroke-width: 1px; fill: rgb(255, 255, 255); fill-opacity: 1; stroke: rgb(68, 68, 68); stroke-opacity: 1;"/><path class="point" transform="translate(293.86,24.78)" d="M4,0A4,4 0 1,1 0,-4A4,4 0 0,1 4,0Z" style="opacity: 1; stroke-width: 1px; fill: rgb(255, 255, 255); fill-opacity: 1; stroke: rgb(68, 68, 68); stroke-opacity: 1;"/><path class="point" transform="translate(662.17,259.15)" d="M4,0A4,4 0 1,1 0,-4A4,4 0 0,1 4,0Z" style="opacity: 1; stroke-width: 1px; fill: rgb(255, 255, 255); fill-opacity: 1; stroke: rgb(68, 68, 68); stroke-opacity: 1;"/><path class="point" transform="translate(468.38,68.09)" d="M4,0A4,4 0 1,1 0,-4A4,4 0 0,1 4,0Z" style="opacity: 1; stroke-width: 1px; fill: rgb(230, 211, 217); fill-opacity: 1; stroke: rgb(68, 68, 68); stroke-opacity: 1;"/><path class="point" transform="translate(233.58,325.88)" d="M4,0A4,4 0 1,1 0,-4A4,4 0 0,1 4,0Z" style="opacity: 1; stroke-width: 1px; fill: rgb(255, 255, 255); fill-opacity: 1; stroke: rgb(68, 68, 68); stroke-opacity: 1;"/><path class="point" transform="translate(474.47,62.71)" d="M4,0A4,4 0 1,1 0,-4A4,4 0 0,1 4,0Z" style="opacity: 1; stroke-width: 1px; fill: rgb(206, 168, 180); fill-opacity: 1; stroke: rgb(68, 68, 68); stroke-opacity: 1;"/><path class="point" transform="translate(62.31,241.22)" d="M4,0A4,4 0 1,1 0,-4A4,4 0 0,1 4,0Z" style="opacity: 1; stroke-width: 1px; fill: rgb(255, 255, 255); fill-opacity: 1; stroke: rgb(68, 68, 68); stroke-opacity: 1;"/><path class="point" transform="translate(641.84,270.69)" d="M4,0A4,4 0 1,1 0,-4A4,4 0 0,1 4,0Z" style="opacity: 1; stroke-width: 1px; fill: rgb(255, 255, 255); fill-opacity: 1; stroke: rgb(68, 68, 68); stroke-opacity: 1;"/><path class="point" transform="translate(67.14,158.18)" d="M4,0A4,4 0 1,1 0,-4A4,4 0 0,1 4,0Z" style="opacity: 1; stroke-width: 1px; fill: rgb(230, 211, 217); fill-opacity: 1; stroke: rgb(68, 68, 68); stroke-opacity: 1;"/><path class="point" transform="translate(681.16,243.98)" d="M4,0A4,4 0 1,1 0,-4A4,4 0 0,1 4,0Z" style="opacity: 1; stroke-width: 1px; fill: rgb(255, 255, 255); fill-opacity: 1; stroke: rgb(68, 68, 68); stroke-opacity: 1;"/><path class="point" transform="translate(479.86,58.1)" d="M4,0A4,4 0 1,1 0,-4A4,4 0 0,1 4,0Z" style="opacity: 1; stroke-width: 1px; fill: rgb(230, 211, 217); fill-opacity: 1; stroke: rgb(68, 68, 68); stroke-opacity: 1;"/><path class="point" transform="translate(209.23,50.15)" d="M4,0A4,4 0 1,1 0,-4A4,4 0 0,1 4,0Z" style="opacity: 1; stroke-width: 1px; fill: rgb(255, 255, 255); fill-opacity: 1; stroke: rgb(68, 68, 68); stroke-opacity: 1;"/><path class="point" transform="translate(78.35,159.03)" d="M4,0A4,4 0 1,1 0,-4A4,4 0 0,1 4,0Z" style="opacity: 1; stroke-width: 1px; fill: rgb(230, 211, 217); fill-opacity: 1; stroke: rgb(68, 68, 68); stroke-opacity: 1;"/><path class="point" transform="translate(634.63,118.42)" d="M4,0A4,4 0 1,1 0,-4A4,4 0 0,1 4,0Z" style="opacity: 1; stroke-width: 1px; fill: rgb(255, 255, 255); fill-opacity: 1; stroke: rgb(68, 68, 68); stroke-opacity: 1;"/><path class="point" transform="translate(93.09,88.26)" d="M4,0A4,4 0 1,1 0,-4A4,4 0 0,1 4,0Z" style="opacity: 1; stroke-width: 1px; fill: rgb(255, 255, 255); fill-opacity: 1; stroke: rgb(68, 68, 68); stroke-opacity: 1;"/><path class="point" transform="translate(182.49,302.28)" d="M4,0A4,4 0 1,1 0,-4A4,4 0 0,1 4,0Z" style="opacity: 1; stroke-width: 1px; fill: rgb(255, 255, 255); fill-opacity: 1; stroke: rgb(68, 68, 68); stroke-opacity: 1;"/><path class="point" transform="translate(43.92,155.04)" d="M4,0A4,4 0 1,1 0,-4A4,4 0 0,1 4,0Z" style="opacity: 1; stroke-width: 1px; fill: rgb(255, 255, 255); fill-opacity: 1; stroke: rgb(68, 68, 68); stroke-opacity: 1;"/><path class="point" transform="translate(547.98,311.65)" d="M4,0A4,4 0 1,1 0,-4A4,4 0 0,1 4,0Z" style="opacity: 1; stroke-width: 1px; fill: rgb(206, 168, 180); fill-opacity: 1; stroke: rgb(68, 68, 68); stroke-opacity: 1;"/><path class="point" transform="translate(403.38,325.79)" d="M4,0A4,4 0 1,1 0,-4A4,4 0 0,1 4,0Z" style="opacity: 1; stroke-width: 1px; fill: rgb(255, 255, 255); fill-opacity: 1; stroke: rgb(68, 68, 68); stroke-opacity: 1;"/><path class="point" transform="translate(544.76,306.11)" d="M4,0A4,4 0 1,1 0,-4A4,4 0 0,1 4,0Z" style="opacity: 1; stroke-width: 1px; fill: rgb(206, 168, 180); fill-opacity: 1; stroke: rgb(68, 68, 68); stroke-opacity: 1;"/><path class="point" transform="translate(629.59,254.52)" d="M4,0A4,4 0 1,1 0,-4A4,4 0 0,1 4,0Z" style="opacity: 1; stroke-width: 1px; fill: rgb(255, 255, 255); fill-opacity: 1; stroke: rgb(68, 68, 68); stroke-opacity: 1;"/><path class="point" transform="translate(554.02,309.63)" d="M4,0A4,4 0 1,1 0,-4A4,4 0 0,1 4,0Z" style="opacity: 1; stroke-width: 1px; fill: rgb(206, 168, 180); fill-opacity: 1; stroke: rgb(68, 68, 68); stroke-opacity: 1;"/><path class="point" transform="translate(261.83,325.92)" d="M4,0A4,4 0 1,1 0,-4A4,4 0 0,1 4,0Z" style="opacity: 1; stroke-width: 1px; fill: rgb(255, 255, 255); fill-opacity: 1; stroke: rgb(68, 68, 68); stroke-opacity: 1;"/><path class="point" transform="translate(623.19,70.17)" d="M4,0A4,4 0 1,1 0,-4A4,4 0 0,1 4,0Z" style="opacity: 1; stroke-width: 1px; fill: rgb(255, 255, 255); fill-opacity: 1; stroke: rgb(68, 68, 68); stroke-opacity: 1;"/><path class="point" transform="translate(115.36,94.52)" d="M4,0A4,4 0 1,1 0,-4A4,4 0 0,1 4,0Z" style="opacity: 1; stroke-width: 1px; fill: rgb(255, 255, 255); fill-opacity: 1; stroke: rgb(68, 68, 68); stroke-opacity: 1;"/><path class="point" transform="translate(601.16,264.2)" d="M4,0A4,4 0 1,1 0,-4A4,4 0 0,1 4,0Z" style="opacity: 1; stroke-width: 1px; fill: rgb(230, 211, 217); fill-opacity: 1; stroke: rgb(68, 68, 68); stroke-opacity: 1;"/><path class="point" transform="translate(594.05,266.25)" d="M4,0A4,4 0 1,1 0,-4A4,4 0 0,1 4,0Z" style="opacity: 1; stroke-width: 1px; fill: rgb(230, 211, 217); fill-opacity: 1; stroke: rgb(68, 68, 68); stroke-opacity: 1;"/><path class="point" transform="translate(161.78,50.82)" d="M4,0A4,4 0 1,1 0,-4A4,4 0 0,1 4,0Z" style="opacity: 1; stroke-width: 1px; fill: rgb(255, 255, 255); fill-opacity: 1; stroke: rgb(68, 68, 68); stroke-opacity: 1;"/><path class="point" transform="translate(685.02,140.88)" d="M4,0A4,4 0 1,1 0,-4A4,4 0 0,1 4,0Z" style="opacity: 1; stroke-width: 1px; fill: rgb(255, 255, 255); fill-opacity: 1; stroke: rgb(68, 68, 68); stroke-opacity: 1;"/><path class="point" transform="translate(110.3,252.65)" d="M4,0A4,4 0 1,1 0,-4A4,4 0 0,1 4,0Z" style="opacity: 1; stroke-width: 1px; fill: rgb(255, 255, 255); fill-opacity: 1; stroke: rgb(68, 68, 68); stroke-opacity: 1;"/><path class="point" transform="translate(480.97,31.91)" d="M4,0A4,4 0 1,1 0,-4A4,4 0 0,1 4,0Z" style="opacity: 1; stroke-width: 1px; fill: rgb(255, 255, 255); fill-opacity: 1; stroke: rgb(68, 68, 68); stroke-opacity: 1;"/><path class="point" transform="translate(651.65,205.83)" d="M4,0A4,4 0 1,1 0,-4A4,4 0 0,1 4,0Z" style="opacity: 1; stroke-width: 1px; fill: rgb(230, 211, 217); fill-opacity: 1; stroke: rgb(68, 68, 68); stroke-opacity: 1;"/><path class="point" transform="translate(646.78,209.08)" d="M4,0A4,4 0 1,1 0,-4A4,4 0 0,1 4,0Z" style="opacity: 1; stroke-width: 1px; fill: rgb(230, 211, 217); fill-opacity: 1; stroke: rgb(68, 68, 68); stroke-opacity: 1;"/><path class="point" transform="translate(245.1,32.12)" d="M4,0A4,4 0 1,1 0,-4A4,4 0 0,1 4,0Z" style="opacity: 1; stroke-width: 1px; fill: rgb(255, 255, 255); fill-opacity: 1; stroke: rgb(68, 68, 68); stroke-opacity: 1;"/><path class="point" transform="translate(237.02,314.12)" d="M4,0A4,4 0 1,1 0,-4A4,4 0 0,1 4,0Z" style="opacity: 1; stroke-width: 1px; fill: rgb(230, 211, 217); fill-opacity: 1; stroke: rgb(68, 68, 68); stroke-opacity: 1;"/><path class="point" transform="translate(301.56,259.16)" d="M4,0A4,4 0 1,1 0,-4A4,4 0 0,1 4,0Z" style="opacity: 1; stroke-width: 1px; fill: rgb(230, 211, 217); fill-opacity: 1; stroke: rgb(68, 68, 68); stroke-opacity: 1;"/><path class="point" transform="translate(229.18,315.42)" d="M4,0A4,4 0 1,1 0,-4A4,4 0 0,1 4,0Z" style="opacity: 1; stroke-width: 1px; fill: rgb(230, 211, 217); fill-opacity: 1; stroke: rgb(68, 68, 68); stroke-opacity: 1;"/><path class="point" transform="translate(110.06,140.89)" d="M4,0A4,4 0 1,1 0,-4A4,4 0 0,1 4,0Z" style="opacity: 1; stroke-width: 1px; fill: rgb(230, 211, 217); fill-opacity: 1; stroke: rgb(68, 68, 68); stroke-opacity: 1;"/><path class="point" transform="translate(572.61,293.5)" d="M4,0A4,4 0 1,1 0,-4A4,4 0 0,1 4,0Z" style="opacity: 1; stroke-width: 1px; fill: rgb(255, 255, 255); fill-opacity: 1; stroke: rgb(68, 68, 68); stroke-opacity: 1;"/><path class="point" transform="translate(307.58,256.25)" d="M4,0A4,4 0 1,1 0,-4A4,4 0 0,1 4,0Z" style="opacity: 1; stroke-width: 1px; fill: rgb(230, 211, 217); fill-opacity: 1; stroke: rgb(68, 68, 68); stroke-opacity: 1;"/><path class="point" transform="translate(402.77,40.6)" d="M4,0A4,4 0 1,1 0,-4A4,4 0 0,1 4,0Z" style="opacity: 1; stroke-width: 1px; fill: rgb(206, 168, 180); fill-opacity: 1; stroke: rgb(68, 68, 68); stroke-opacity: 1;"/><path class="point" transform="translate(410.07,39.5)" d="M4,0A4,4 0 1,1 0,-4A4,4 0 0,1 4,0Z" style="opacity: 1; stroke-width: 1px; fill: rgb(206, 168, 180); fill-opacity: 1; stroke: rgb(68, 68, 68); stroke-opacity: 1;"/><path class="point" transform="translate(406.19,44.88)" d="M4,0A4,4 0 1,1 0,-4A4,4 0 0,1 4,0Z" style="opacity: 1; stroke-width: 1px; fill: rgb(206, 168, 180); fill-opacity: 1; stroke: rgb(68, 68, 68); stroke-opacity: 1;"/><path class="point" transform="translate(100.12,139.64)" d="M4,0A4,4 0 1,1 0,-4A4,4 0 0,1 4,0Z" style="opacity: 1; stroke-width: 1px; fill: rgb(230, 211, 217); fill-opacity: 1; stroke: rgb(68, 68, 68); stroke-opacity: 1;"/><path class="point" transform="translate(144.55,285.16)" d="M4,0A4,4 0 1,1 0,-4A4,4 0 0,1 4,0Z" style="opacity: 1; stroke-width: 1px; fill: rgb(255, 255, 255); fill-opacity: 1; stroke: rgb(68, 68, 68); stroke-opacity: 1;"/><path class="point" transform="translate(700.85,190.01)" d="M4,0A4,4 0 1,1 0,-4A4,4 0 0,1 4,0Z" style="opacity: 1; stroke-width: 1px; fill: rgb(255, 255, 255); fill-opacity: 1; stroke: rgb(68, 68, 68); stroke-opacity: 1;"/><path class="point" transform="translate(691.78,169.47)" d="M4,0A4,4 0 1,1 0,-4A4,4 0 0,1 4,0Z" style="opacity: 1; stroke-width: 1px; fill: rgb(255, 255, 255); fill-opacity: 1; stroke: rgb(68, 68, 68); stroke-opacity: 1;"/><path class="point" transform="translate(528.88,91.38)" d="M4,0A4,4 0 1,1 0,-4A4,4 0 0,1 4,0Z" style="opacity: 1; stroke-width: 1px; fill: rgb(230, 211, 217); fill-opacity: 1; stroke: rgb(68, 68, 68); stroke-opacity: 1;"/><path class="point" transform="translate(588.31,93)" d="M4,0A4,4 0 1,1 0,-4A4,4 0 0,1 4,0Z" style="opacity: 1; stroke-width: 1px; fill: rgb(230, 211, 217); fill-opacity: 1; stroke: rgb(68, 68, 68); stroke-opacity: 1;"/><path class="point" transform="translate(126.46,80.3)" d="M4,0A4,4 0 1,1 0,-4A4,4 0 0,1 4,0Z" style="opacity: 1; stroke-width: 1px; fill: rgb(255, 255, 255); fill-opacity: 1; stroke: rgb(68, 68, 68); stroke-opacity: 1;"/><path class="point" transform="translate(233.7,175.76)" d="M4,0A4,4 0 1,1 0,-4A4,4 0 0,1 4,0Z" style="opacity: 1; stroke-width: 1px; fill: rgb(230, 211, 217); fill-opacity: 1; stroke: rgb(68, 68, 68); stroke-opacity: 1;"/><path class="point" transform="translate(506.79,316.13)" d="M4,0A4,4 0 1,1 0,-4A4,4 0 0,1 4,0Z" style="opacity: 1; stroke-width: 1px; fill: rgb(255, 255, 255); fill-opacity: 1; stroke: rgb(68, 68, 68); stroke-opacity: 1;"/><path class="point" transform="translate(602.92,55.79)" d="M4,0A4,4 0 1,1 0,-4A4,4 0 0,1 4,0Z" style="opacity: 1; stroke-width: 1px; fill: rgb(255, 255, 255); fill-opacity: 1; stroke: rgb(68, 68, 68); stroke-opacity: 1;"/><path class="point" transform="translate(691.64,205.35)" d="M4,0A4,4 0 1,1 0,-4A4,4 0 0,1 4,0Z" style="opacity: 1; stroke-width: 1px; fill: rgb(255, 255, 255); fill-opacity: 1; stroke: rgb(68, 68, 68); stroke-opacity: 1;"/><path class="point" transform="translate(95.38,76.25)" d="M4,0A4,4 0 1,1 0,-4A4,4 0 0,1 4,0Z" style="opacity: 1; stroke-width: 1px; fill: rgb(255, 255, 255); fill-opacity: 1; stroke: rgb(68, 68, 68); stroke-opacity: 1;"/><path class="point" transform="translate(226.05,177.59)" d="M4,0A4,4 0 1,1 0,-4A4,4 0 0,1 4,0Z" style="opacity: 1; stroke-width: 1px; fill: rgb(230, 211, 217); fill-opacity: 1; stroke: rgb(68, 68, 68); stroke-opacity: 1;"/><path class="point" transform="translate(597.84,89.26)" d="M4,0A4,4 0 1,1 0,-4A4,4 0 0,1 4,0Z" style="opacity: 1; stroke-width: 1px; fill: rgb(230, 211, 217); fill-opacity: 1; stroke: rgb(68, 68, 68); stroke-opacity: 1;"/><path class="point" transform="translate(520.96,94.84)" d="M4,0A4,4 0 1,1 0,-4A4,4 0 0,1 4,0Z" style="opacity: 1; stroke-width: 1px; fill: rgb(230, 211, 217); fill-opacity: 1; stroke: rgb(68, 68, 68); stroke-opacity: 1;"/><path class="point" transform="translate(451.6,161.4)" d="M4,0A4,4 0 1,1 0,-4A4,4 0 0,1 4,0Z" style="opacity: 1; stroke-width: 1px; fill: rgb(206, 168, 180); fill-opacity: 1; stroke: rgb(68, 68, 68); stroke-opacity: 1;"/><path class="point" transform="translate(88.61,113.69)" d="M4,0A4,4 0 1,1 0,-4A4,4 0 0,1 4,0Z" style="opacity: 1; stroke-width: 1px; fill: rgb(255, 255, 255); fill-opacity: 1; stroke: rgb(68, 68, 68); stroke-opacity: 1;"/><path class="point" transform="translate(683.94,129.14)" d="M4,0A4,4 0 1,1 0,-4A4,4 0 0,1 4,0Z" style="opacity: 1; stroke-width: 1px; fill: rgb(255, 255, 255); fill-opacity: 1; stroke: rgb(68, 68, 68); stroke-opacity: 1;"/><path class="point" transform="translate(443.67,159.48)" d="M4,0A4,4 0 1,1 0,-4A4,4 0 0,1 4,0Z" style="opacity: 1; stroke-width: 1px; fill: rgb(182, 124, 142); fill-opacity: 1; stroke: rgb(68, 68, 68); stroke-opacity: 1;"/><path class="point" transform="translate(450.91,156.42)" d="M4,0A4,4 0 1,1 0,-4A4,4 0 0,1 4,0Z" style="opacity: 1; stroke-width: 1px; fill: rgb(158, 81, 105); fill-opacity: 1; stroke: rgb(68, 68, 68); stroke-opacity: 1;"/><path class="point" transform="translate(266.25,96.3)" d="M4,0A4,4 0 1,1 0,-4A4,4 0 0,1 4,0Z" style="opacity: 1; stroke-width: 1px; fill: rgb(230, 211, 217); fill-opacity: 1; stroke: rgb(68, 68, 68); stroke-opacity: 1;"/><path class="point" transform="translate(440.37,155.6)" d="M4,0A4,4 0 1,1 0,-4A4,4 0 0,1 4,0Z" style="opacity: 1; stroke-width: 1px; fill: rgb(206, 168, 180); fill-opacity: 1; stroke: rgb(68, 68, 68); stroke-opacity: 1;"/><path class="point" transform="translate(273.46,98.29)" d="M4,0A4,4 0 1,1 0,-4A4,4 0 0,1 4,0Z" style="opacity: 1; stroke-width: 1px; fill: rgb(230, 211, 217); fill-opacity: 1; stroke: rgb(68, 68, 68); stroke-opacity: 1;"/><path class="point" transform="translate(173.32,291.32)" d="M4,0A4,4 0 1,1 0,-4A4,4 0 0,1 4,0Z" style="opacity: 1; stroke-width: 1px; fill: rgb(255, 255, 255); fill-opacity: 1; stroke: rgb(68, 68, 68); stroke-opacity: 1;"/><path class="point" transform="translate(460.1,152.81)" d="M4,0A4,4 0 1,1 0,-4A4,4 0 0,1 4,0Z" style="opacity: 1; stroke-width: 1px; fill: rgb(230, 211, 217); fill-opacity: 1; stroke: rgb(68, 68, 68); stroke-opacity: 1;"/><path class="point" transform="translate(558.28,44.85)" d="M4,0A4,4 0 1,1 0,-4A4,4 0 0,1 4,0Z" style="opacity: 1; stroke-width: 1px; fill: rgb(255, 255, 255); fill-opacity: 1; stroke: rgb(68, 68, 68); stroke-opacity: 1;"/><path class="point" transform="translate(247.92,61.03)" d="M4,0A4,4 0 1,1 0,-4A4,4 0 0,1 4,0Z" style="opacity: 1; stroke-width: 1px; fill: rgb(255, 255, 255); fill-opacity: 1; stroke: rgb(68, 68, 68); stroke-opacity: 1;"/><path class="point" transform="translate(644.91,105.41)" d="M4,0A4,4 0 1,1 0,-4A4,4 0 0,1 4,0Z" style="opacity: 1; stroke-width: 1px; fill: rgb(255, 255, 255); fill-opacity: 1; stroke: rgb(68, 68, 68); stroke-opacity: 1;"/><path class="point" transform="translate(503.73,41.82)" d="M4,0A4,4 0 1,1 0,-4A4,4 0 0,1 4,0Z" style="opacity: 1; stroke-width: 1px; fill: rgb(255, 255, 255); fill-opacity: 1; stroke: rgb(68, 68, 68); stroke-opacity: 1;"/><path class="point" transform="translate(679.84,226.89)" d="M4,0A4,4 0 1,1 0,-4A4,4 0 0,1 4,0Z" style="opacity: 1; stroke-width: 1px; fill: rgb(255, 255, 255); fill-opacity: 1; stroke: rgb(68, 68, 68); stroke-opacity: 1;"/><path class="point" transform="translate(330.63,333.67)" d="M4,0A4,4 0 1,1 0,-4A4,4 0 0,1 4,0Z" style="opacity: 1; stroke-width: 1px; fill: rgb(255, 255, 255); fill-opacity: 1; stroke: rgb(68, 68, 68); stroke-opacity: 1;"/><path class="point" transform="translate(395.81,337)" d="M4,0A4,4 0 1,1 0,-4A4,4 0 0,1 4,0Z" style="opacity: 1; stroke-width: 1px; fill: rgb(255, 255, 255); fill-opacity: 1; stroke: rgb(68, 68, 68); stroke-opacity: 1;"/><path class="point" transform="translate(152.09,262.34)" d="M4,0A4,4 0 1,1 0,-4A4,4 0 0,1 4,0Z" style="opacity: 1; stroke-width: 1px; fill: rgb(230, 211, 217); fill-opacity: 1; stroke: rgb(68, 68, 68); stroke-opacity: 1;"/><path class="point" transform="translate(190.88,64.57)" d="M4,0A4,4 0 1,1 0,-4A4,4 0 0,1 4,0Z" style="opacity: 1; stroke-width: 1px; fill: rgb(255, 255, 255); fill-opacity: 1; stroke: rgb(68, 68, 68); stroke-opacity: 1;"/><path class="point" transform="translate(143.6,263.02)" d="M4,0A4,4 0 1,1 0,-4A4,4 0 0,1 4,0Z" style="opacity: 1; stroke-width: 1px; fill: rgb(230, 211, 217); fill-opacity: 1; stroke: rgb(68, 68, 68); stroke-opacity: 1;"/><path class="point" transform="translate(677.76,214.1)" d="M4,0A4,4 0 1,1 0,-4A4,4 0 0,1 4,0Z" style="opacity: 1; stroke-width: 1px; fill: rgb(255, 255, 255); fill-opacity: 1; stroke: rgb(68, 68, 68); stroke-opacity: 1;"/><path class="point" transform="translate(51.29,169.08)" d="M4,0A4,4 0 1,1 0,-4A4,4 0 0,1 4,0Z" style="opacity: 1; stroke-width: 1px; fill: rgb(255, 255, 255); fill-opacity: 1; stroke: rgb(68, 68, 68); stroke-opacity: 1;"/><path class="point" transform="translate(593.63,290.37)" d="M4,0A4,4 0 1,1 0,-4A4,4 0 0,1 4,0Z" style="opacity: 1; stroke-width: 1px; fill: rgb(255, 255, 255); fill-opacity: 1; stroke: rgb(68, 68, 68); stroke-opacity: 1;"/><path class="point" transform="translate(469.44,328.23)" d="M4,0A4,4 0 1,1 0,-4A4,4 0 0,1 4,0Z" style="opacity: 1; stroke-width: 1px; fill: rgb(255, 255, 255); fill-opacity: 1; stroke: rgb(68, 68, 68); stroke-opacity: 1;"/><path class="point" transform="translate(42.15,181.54)" d="M4,0A4,4 0 1,1 0,-4A4,4 0 0,1 4,0Z" style="opacity: 1; stroke-width: 1px; fill: rgb(255, 255, 255); fill-opacity: 1; stroke: rgb(68, 68, 68); stroke-opacity: 1;"/><path class="point" transform="translate(291.95,45.48)" d="M4,0A4,4 0 1,1 0,-4A4,4 0 0,1 4,0Z" style="opacity: 1; stroke-width: 1px; fill: rgb(255, 255, 255); fill-opacity: 1; stroke: rgb(68, 68, 68); stroke-opacity: 1;"/><path class="point" transform="translate(453.83,24.26)" d="M4,0A4,4 0 1,1 0,-4A4,4 0 0,1 4,0Z" style="opacity: 1; stroke-width: 1px; fill: rgb(255, 255, 255); fill-opacity: 1; stroke: rgb(68, 68, 68); stroke-opacity: 1;"/><path class="point" transform="translate(483.36,291.22)" d="M4,0A4,4 0 1,1 0,-4A4,4 0 0,1 4,0Z" style="opacity: 1; stroke-width: 1px; fill: rgb(255, 255, 255); fill-opacity: 1; stroke: rgb(68, 68, 68); stroke-opacity: 1;"/><path class="point" transform="translate(331.11,67.19)" d="M4,0A4,4 0 1,1 0,-4A4,4 0 0,1 4,0Z" style="opacity: 1; stroke-width: 1px; fill: rgb(230, 211, 217); fill-opacity: 1; stroke: rgb(68, 68, 68); stroke-opacity: 1;"/><path class="point" transform="translate(357.48,335.08)" d="M4,0A4,4 0 1,1 0,-4A4,4 0 0,1 4,0Z" style="opacity: 1; stroke-width: 1px; fill: rgb(255, 255, 255); fill-opacity: 1; stroke: rgb(68, 68, 68); stroke-opacity: 1;"/><path class="point" transform="translate(330.15,62.99)" d="M4,0A4,4 0 1,1 0,-4A4,4 0 0,1 4,0Z" style="opacity: 1; stroke-width: 1px; fill: rgb(230, 211, 217); fill-opacity: 1; stroke: rgb(68, 68, 68); stroke-opacity: 1;"/><path class="point" transform="translate(626.82,87.41)" d="M4,0A4,4 0 1,1 0,-4A4,4 0 0,1 4,0Z" style="opacity: 1; stroke-width: 1px; fill: rgb(255, 255, 255); fill-opacity: 1; stroke: rgb(68, 68, 68); stroke-opacity: 1;"/><path class="point" transform="translate(311.49,327.9)" d="M4,0A4,4 0 1,1 0,-4A4,4 0 0,1 4,0Z" style="opacity: 1; stroke-width: 1px; fill: rgb(255, 255, 255); fill-opacity: 1; stroke: rgb(68, 68, 68); stroke-opacity: 1;"/><path class="point" transform="translate(86.06,255.22)" d="M4,0A4,4 0 1,1 0,-4A4,4 0 0,1 4,0Z" style="opacity: 1; stroke-width: 1px; fill: rgb(255, 255, 255); fill-opacity: 1; stroke: rgb(68, 68, 68); stroke-opacity: 1;"/><path class="point" transform="translate(370.2,35.87)" d="M4,0A4,4 0 1,1 0,-4A4,4 0 0,1 4,0Z" style="opacity: 1; stroke-width: 1px; fill: rgb(255, 255, 255); fill-opacity: 1; stroke: rgb(68, 68, 68); stroke-opacity: 1;"/><path class="point" transform="translate(593.84,280.75)" d="M4,0A4,4 0 1,1 0,-4A4,4 0 0,1 4,0Z" style="opacity: 1; stroke-width: 1px; fill: rgb(255, 255, 255); fill-opacity: 1; stroke: rgb(68, 68, 68); stroke-opacity: 1;"/><path class="point" transform="translate(677.65,116.05)" d="M4,0A4,4 0 1,1 0,-4A4,4 0 0,1 4,0Z" style="opacity: 1; stroke-width: 1px; fill: rgb(255, 255, 255); fill-opacity: 1; stroke: rgb(68, 68, 68); stroke-opacity: 1;"/><path class="point" transform="translate(452.24,45.71)" d="M4,0A4,4 0 1,1 0,-4A4,4 0 0,1 4,0Z" style="opacity: 1; stroke-width: 1px; fill: rgb(255, 255, 255); fill-opacity: 1; stroke: rgb(68, 68, 68); stroke-opacity: 1;"/><path class="point" transform="translate(276.32,319.73)" d="M4,0A4,4 0 1,1 0,-4A4,4 0 0,1 4,0Z" style="opacity: 1; stroke-width: 1px; fill: rgb(255, 255, 255); fill-opacity: 1; stroke: rgb(68, 68, 68); stroke-opacity: 1;"/><path class="point" transform="translate(246.52,43.13)" d="M4,0A4,4 0 1,1 0,-4A4,4 0 0,1 4,0Z" style="opacity: 1; stroke-width: 1px; fill: rgb(255, 255, 255); fill-opacity: 1; stroke: rgb(68, 68, 68); stroke-opacity: 1;"/><path class="point" transform="translate(78.83,269.19)" d="M4,0A4,4 0 1,1 0,-4A4,4 0 0,1 4,0Z" style="opacity: 1; stroke-width: 1px; fill: rgb(255, 255, 255); fill-opacity: 1; stroke: rgb(68, 68, 68); stroke-opacity: 1;"/></g><g class="text"/></g></g></g><g class="overplot"/><path class="xlines-above crisp" d="M0,0" style="fill: none;"/><path class="ylines-above crisp" d="M0,0" style="fill: none;"/><g class="overlines-above"/><g class="xaxislayer-above"/><g class="yaxislayer-above"/><g class="overaxes-above"/></g></g><g class="polarlayer"/><g class="smithlayer"/><g class="ternarylayer"/><g class="geolayer"/><g class="funnelarealayer"/><g class="pielayer"/><g class="iciclelayer"/><g class="treemaplayer"/><g class="sunburstlayer"/><g class="glimages"/><defs id="topdefs-dbc73f"><g class="clips"/></defs><g class="layer-above"><g class="imagelayer"/><g class="shapelayer"/></g><g class="infolayer"><g class="cb829d31 colorbar" transform="translate(0,40)"><rect class="cbbg" x="757.75" y="0" width="42.1103515625" height="360.5" style="fill: rgb(0, 0, 0); fill-opacity: 0; stroke: rgb(68, 68, 68); stroke-opacity: 1; stroke-width: 0;"/><g class="cbfills" transform="translate(0,10)"><rect class="cbfill gradient_filled" x="758" y="0" width="15" height="340" style="fill: url('#gdbc73f-cb829d31');"/></g><g class="cblines" transform="translate(0,10)"/><g class="cbaxis crisp" transform="translate(0,-40)"><g class="ycb829d31tick"><text text-anchor="start" x="776.15" y="4.199999999999999" transform="translate(0,390)" style="font-family: 'Open Sans', verdana, arial, sans-serif; font-size: 12px; fill: rgb(42, 63, 95); fill-opacity: 1; white-space: pre; opacity: 1;">0</text></g><g class="ycb829d31tick"><text text-anchor="start" x="776.15" y="4.199999999999999" style="font-family: 'Open Sans', verdana, arial, sans-serif; font-size: 12px; fill: rgb(42, 63, 95); fill-opacity: 1; white-space: pre; opacity: 1;" transform="translate(0,50)">4</text></g></g><g class="cbtitleunshift" transform="translate(0,-40)"><g class="cbtitle"><text class="hycb829d31title" transform="rotate(-90,796.86,220)" x="796.86" y="220" text-anchor="middle" style="font-family: 'Open Sans', verdana, arial, sans-serif; font-size: 14px; fill: rgb(42, 63, 95); opacity: 1; font-weight: normal; white-space: pre;">Node Degree</text></g></g><rect class="cboutline" x="758" y="10" width="15" height="340" style="stroke: rgb(68, 68, 68); stroke-opacity: 1; fill: none; stroke-width: 0.5;"/></g><g class="g-gtitle"><text class="gtitle" x="40" y="20" text-anchor="start" dy="0em" style="font-family: 'Open Sans', verdana, arial, sans-serif; font-size: 16px; fill: rgb(42, 63, 95); opacity: 1; font-weight: normal; white-space: pre;">RN Graph based on GCA  |  CutRad=5.svg</text></g><g class="g-xtitle"/><g class="g-ytitle"/><g class="annotation" data-index="0" style="opacity: 1;"><g class="annotation-text-g" transform="rotate(0,371.5,220)"><g class="cursor-pointer" transform="translate(370,218)"><rect class="bg" x="0.5" y="0.5" width="3" height="3" style="stroke-width: 1px; stroke: rgb(0, 0, 0); stroke-opacity: 0; fill: rgb(0, 0, 0); fill-opacity: 0;"/><text class="annotation-text" text-anchor="middle" x="2" y="2" style="font-family: 'Open Sans', verdana, arial, sans-serif; font-size: 12px; fill: rgb(42, 63, 95); fill-opacity: 1; white-space: pre;"></text></g></g></g></g></svg>